<mxfile host="app.diagrams.net" agent="Mozilla/5.0 (Macintosh; Intel Mac OS X 10_15_7) AppleWebKit/605.1.15 (KHTML, like Gecko) Version/18.0.1 Safari/605.1.15" version="25.0.1">
  <diagram name="Sayfa -1" id="jDDf7yI5Ph4p9Fsg3NfB">
    <mxGraphModel dx="963" dy="754" grid="1" gridSize="10" guides="1" tooltips="1" connect="1" arrows="1" fold="1" page="1" pageScale="1" pageWidth="827" pageHeight="1169" math="0" shadow="0">
      <root>
        <mxCell id="0" />
        <mxCell id="1" parent="0" />
        <mxCell id="Z0DfydjJGIAEFnmEN4nz-1" value=":Player" style="rounded=0;whiteSpace=wrap;html=1;" vertex="1" parent="1">
          <mxGeometry x="80" y="190" width="120" height="60" as="geometry" />
        </mxCell>
        <mxCell id="Z0DfydjJGIAEFnmEN4nz-2" value=":GameSystem" style="rounded=0;whiteSpace=wrap;html=1;" vertex="1" parent="1">
          <mxGeometry x="230" y="190" width="120" height="60" as="geometry" />
        </mxCell>
        <mxCell id="Z0DfydjJGIAEFnmEN4nz-3" value=":Hall" style="rounded=0;whiteSpace=wrap;html=1;" vertex="1" parent="1">
          <mxGeometry x="380" y="190" width="120" height="60" as="geometry" />
        </mxCell>
        <mxCell id="Z0DfydjJGIAEFnmEN4nz-4" value=":Rune" style="rounded=0;whiteSpace=wrap;html=1;" vertex="1" parent="1">
          <mxGeometry x="530" y="190" width="120" height="60" as="geometry" />
        </mxCell>
        <mxCell id="Z0DfydjJGIAEFnmEN4nz-5" value="" style="endArrow=none;dashed=1;html=1;rounded=0;entryX=0.5;entryY=1;entryDx=0;entryDy=0;" edge="1" parent="1" source="Z0DfydjJGIAEFnmEN4nz-41" target="Z0DfydjJGIAEFnmEN4nz-1">
          <mxGeometry width="50" height="50" relative="1" as="geometry">
            <mxPoint x="140" y="730" as="sourcePoint" />
            <mxPoint x="440" y="360" as="targetPoint" />
          </mxGeometry>
        </mxCell>
        <mxCell id="Z0DfydjJGIAEFnmEN4nz-6" value="" style="endArrow=none;dashed=1;html=1;rounded=0;entryX=0.5;entryY=1;entryDx=0;entryDy=0;" edge="1" parent="1" source="Z0DfydjJGIAEFnmEN4nz-17">
          <mxGeometry width="50" height="50" relative="1" as="geometry">
            <mxPoint x="289.5" y="730" as="sourcePoint" />
            <mxPoint x="289.5" y="250" as="targetPoint" />
          </mxGeometry>
        </mxCell>
        <mxCell id="Z0DfydjJGIAEFnmEN4nz-7" value="" style="endArrow=none;dashed=1;html=1;rounded=0;entryX=0.5;entryY=1;entryDx=0;entryDy=0;" edge="1" parent="1" source="Z0DfydjJGIAEFnmEN4nz-45">
          <mxGeometry width="50" height="50" relative="1" as="geometry">
            <mxPoint x="439.5" y="720" as="sourcePoint" />
            <mxPoint x="439.5" y="240" as="targetPoint" />
          </mxGeometry>
        </mxCell>
        <mxCell id="Z0DfydjJGIAEFnmEN4nz-8" value="" style="endArrow=none;dashed=1;html=1;rounded=0;entryX=0.5;entryY=1;entryDx=0;entryDy=0;" edge="1" parent="1" source="Z0DfydjJGIAEFnmEN4nz-49">
          <mxGeometry width="50" height="50" relative="1" as="geometry">
            <mxPoint x="589.5" y="720" as="sourcePoint" />
            <mxPoint x="589.5" y="240" as="targetPoint" />
          </mxGeometry>
        </mxCell>
        <mxCell id="Z0DfydjJGIAEFnmEN4nz-9" value="" style="endArrow=classic;html=1;rounded=0;" edge="1" parent="1">
          <mxGeometry width="50" height="50" relative="1" as="geometry">
            <mxPoint x="140" y="280" as="sourcePoint" />
            <mxPoint x="440" y="280" as="targetPoint" />
          </mxGeometry>
        </mxCell>
        <mxCell id="Z0DfydjJGIAEFnmEN4nz-10" value="" style="endArrow=classic;html=1;rounded=0;" edge="1" parent="1">
          <mxGeometry width="50" height="50" relative="1" as="geometry">
            <mxPoint x="140" y="360" as="sourcePoint" />
            <mxPoint x="440" y="360" as="targetPoint" />
          </mxGeometry>
        </mxCell>
        <mxCell id="Z0DfydjJGIAEFnmEN4nz-11" value="" style="endArrow=classic;html=1;rounded=0;" edge="1" parent="1" source="Z0DfydjJGIAEFnmEN4nz-43">
          <mxGeometry width="50" height="50" relative="1" as="geometry">
            <mxPoint x="440" y="320" as="sourcePoint" />
            <mxPoint x="140" y="320" as="targetPoint" />
          </mxGeometry>
        </mxCell>
        <mxCell id="Z0DfydjJGIAEFnmEN4nz-12" value="" style="endArrow=classic;html=1;rounded=0;" edge="1" parent="1">
          <mxGeometry width="50" height="50" relative="1" as="geometry">
            <mxPoint x="440" y="400" as="sourcePoint" />
            <mxPoint x="290" y="400" as="targetPoint" />
          </mxGeometry>
        </mxCell>
        <mxCell id="Z0DfydjJGIAEFnmEN4nz-13" value="enterHall(int hallID):" style="text;html=1;align=center;verticalAlign=middle;resizable=0;points=[];autosize=1;strokeColor=none;fillColor=none;" vertex="1" parent="1">
          <mxGeometry x="225" y="250" width="130" height="30" as="geometry" />
        </mxCell>
        <mxCell id="Z0DfydjJGIAEFnmEN4nz-18" value="" style="endArrow=none;dashed=1;html=1;rounded=0;entryX=0.5;entryY=1;entryDx=0;entryDy=0;" edge="1" parent="1" target="Z0DfydjJGIAEFnmEN4nz-17">
          <mxGeometry width="50" height="50" relative="1" as="geometry">
            <mxPoint x="289.5" y="730" as="sourcePoint" />
            <mxPoint x="289.5" y="250" as="targetPoint" />
          </mxGeometry>
        </mxCell>
        <mxCell id="Z0DfydjJGIAEFnmEN4nz-20" value="" style="endArrow=classic;html=1;rounded=0;" edge="1" parent="1">
          <mxGeometry width="50" height="50" relative="1" as="geometry">
            <mxPoint x="290" y="440" as="sourcePoint" />
            <mxPoint x="590" y="440" as="targetPoint" />
          </mxGeometry>
        </mxCell>
        <mxCell id="Z0DfydjJGIAEFnmEN4nz-22" value="" style="endArrow=classic;html=1;rounded=0;" edge="1" parent="1">
          <mxGeometry width="50" height="50" relative="1" as="geometry">
            <mxPoint x="290" y="480" as="sourcePoint" />
            <mxPoint x="440" y="480" as="targetPoint" />
          </mxGeometry>
        </mxCell>
        <mxCell id="Z0DfydjJGIAEFnmEN4nz-23" value="unlockExit()" style="text;html=1;align=center;verticalAlign=middle;resizable=0;points=[];autosize=1;strokeColor=none;fillColor=none;" vertex="1" parent="1">
          <mxGeometry x="325" y="460" width="90" height="30" as="geometry" />
        </mxCell>
        <mxCell id="Z0DfydjJGIAEFnmEN4nz-24" value="" style="endArrow=classic;html=1;rounded=0;" edge="1" parent="1">
          <mxGeometry width="50" height="50" relative="1" as="geometry">
            <mxPoint x="140" y="520" as="sourcePoint" />
            <mxPoint x="590" y="520" as="targetPoint" />
          </mxGeometry>
        </mxCell>
        <mxCell id="Z0DfydjJGIAEFnmEN4nz-25" value="collectRune()" style="text;html=1;align=center;verticalAlign=middle;resizable=0;points=[];autosize=1;strokeColor=none;fillColor=none;" vertex="1" parent="1">
          <mxGeometry x="315" y="500" width="90" height="30" as="geometry" />
        </mxCell>
        <mxCell id="Z0DfydjJGIAEFnmEN4nz-26" value="loop" style="shape=umlFrame;whiteSpace=wrap;html=1;pointerEvents=0;" vertex="1" parent="1">
          <mxGeometry x="60" y="330" width="680" height="210" as="geometry" />
        </mxCell>
        <mxCell id="Z0DfydjJGIAEFnmEN4nz-27" value="" style="endArrow=none;dashed=1;html=1;dashPattern=1 3;strokeWidth=2;rounded=0;exitX=-0.003;exitY=0.823;exitDx=0;exitDy=0;exitPerimeter=0;entryX=0.997;entryY=0.823;entryDx=0;entryDy=0;entryPerimeter=0;" edge="1" parent="1">
          <mxGeometry width="50" height="50" relative="1" as="geometry">
            <mxPoint x="60.000000000000036" y="420" as="sourcePoint" />
            <mxPoint x="740" y="420" as="targetPoint" />
          </mxGeometry>
        </mxCell>
        <mxCell id="Z0DfydjJGIAEFnmEN4nz-33" value="" style="endArrow=classic;html=1;rounded=0;" edge="1" parent="1">
          <mxGeometry width="50" height="50" relative="1" as="geometry">
            <mxPoint x="440" y="580" as="sourcePoint" />
            <mxPoint x="140" y="580" as="targetPoint" />
          </mxGeometry>
        </mxCell>
        <mxCell id="Z0DfydjJGIAEFnmEN4nz-42" value="" style="endArrow=none;dashed=1;html=1;rounded=0;entryX=0.5;entryY=1;entryDx=0;entryDy=0;" edge="1" parent="1" target="Z0DfydjJGIAEFnmEN4nz-41">
          <mxGeometry width="50" height="50" relative="1" as="geometry">
            <mxPoint x="140" y="730" as="sourcePoint" />
            <mxPoint x="140" y="250" as="targetPoint" />
          </mxGeometry>
        </mxCell>
        <mxCell id="Z0DfydjJGIAEFnmEN4nz-41" value="" style="html=1;points=[[0,0,0,0,5],[0,1,0,0,-5],[1,0,0,0,5],[1,1,0,0,-5]];perimeter=orthogonalPerimeter;outlineConnect=0;targetShapes=umlLifeline;portConstraint=eastwest;newEdgeStyle={&quot;curved&quot;:0,&quot;rounded&quot;:0};" vertex="1" parent="1">
          <mxGeometry x="135" y="280" width="10" height="300" as="geometry" />
        </mxCell>
        <mxCell id="Z0DfydjJGIAEFnmEN4nz-44" value="" style="endArrow=classic;html=1;rounded=0;" edge="1" parent="1" target="Z0DfydjJGIAEFnmEN4nz-43">
          <mxGeometry width="50" height="50" relative="1" as="geometry">
            <mxPoint x="440" y="320" as="sourcePoint" />
            <mxPoint x="140" y="320" as="targetPoint" />
          </mxGeometry>
        </mxCell>
        <mxCell id="Z0DfydjJGIAEFnmEN4nz-43" value="" style="html=1;points=[[0,0,0,0,5],[0,1,0,0,-5],[1,0,0,0,5],[1,1,0,0,-5]];perimeter=orthogonalPerimeter;outlineConnect=0;targetShapes=umlLifeline;portConstraint=eastwest;newEdgeStyle={&quot;curved&quot;:0,&quot;rounded&quot;:0};" vertex="1" parent="1">
          <mxGeometry x="285" y="280" width="10" height="300" as="geometry" />
        </mxCell>
        <mxCell id="Z0DfydjJGIAEFnmEN4nz-46" value="" style="endArrow=none;dashed=1;html=1;rounded=0;entryX=0.5;entryY=1;entryDx=0;entryDy=0;" edge="1" parent="1" target="Z0DfydjJGIAEFnmEN4nz-45">
          <mxGeometry width="50" height="50" relative="1" as="geometry">
            <mxPoint x="440" y="630" as="sourcePoint" />
            <mxPoint x="439.5" y="240" as="targetPoint" />
          </mxGeometry>
        </mxCell>
        <mxCell id="Z0DfydjJGIAEFnmEN4nz-45" value="" style="html=1;points=[[0,0,0,0,5],[0,1,0,0,-5],[1,0,0,0,5],[1,1,0,0,-5]];perimeter=orthogonalPerimeter;outlineConnect=0;targetShapes=umlLifeline;portConstraint=eastwest;newEdgeStyle={&quot;curved&quot;:0,&quot;rounded&quot;:0};" vertex="1" parent="1">
          <mxGeometry x="435" y="280" width="10" height="300" as="geometry" />
        </mxCell>
        <mxCell id="Z0DfydjJGIAEFnmEN4nz-48" value="" style="endArrow=none;dashed=1;html=1;rounded=0;entryX=0.5;entryY=1;entryDx=0;entryDy=0;" edge="1" parent="1">
          <mxGeometry width="50" height="50" relative="1" as="geometry">
            <mxPoint x="439.5" y="720" as="sourcePoint" />
            <mxPoint x="440" y="680" as="targetPoint" />
          </mxGeometry>
        </mxCell>
        <mxCell id="Z0DfydjJGIAEFnmEN4nz-50" value="" style="endArrow=none;dashed=1;html=1;rounded=0;entryX=0.5;entryY=1;entryDx=0;entryDy=0;" edge="1" parent="1" target="Z0DfydjJGIAEFnmEN4nz-49">
          <mxGeometry width="50" height="50" relative="1" as="geometry">
            <mxPoint x="589.5" y="720" as="sourcePoint" />
            <mxPoint x="589.5" y="240" as="targetPoint" />
          </mxGeometry>
        </mxCell>
        <mxCell id="Z0DfydjJGIAEFnmEN4nz-49" value="" style="html=1;points=[[0,0,0,0,5],[0,1,0,0,-5],[1,0,0,0,5],[1,1,0,0,-5]];perimeter=orthogonalPerimeter;outlineConnect=0;targetShapes=umlLifeline;portConstraint=eastwest;newEdgeStyle={&quot;curved&quot;:0,&quot;rounded&quot;:0};" vertex="1" parent="1">
          <mxGeometry x="585" y="440" width="10" height="90" as="geometry" />
        </mxCell>
        <mxCell id="Z0DfydjJGIAEFnmEN4nz-21" value="revealRune()" style="text;html=1;align=center;verticalAlign=middle;resizable=0;points=[];autosize=1;strokeColor=none;fillColor=none;" vertex="1" parent="1">
          <mxGeometry x="395" y="420" width="90" height="30" as="geometry" />
        </mxCell>
        <mxCell id="Z0DfydjJGIAEFnmEN4nz-19" value="checkRune(List &amp;lt;Integer&amp;gt; coordinates)" style="text;html=1;align=center;verticalAlign=middle;resizable=0;points=[];autosize=1;strokeColor=none;fillColor=none;" vertex="1" parent="1">
          <mxGeometry x="256" y="377" width="230" height="30" as="geometry" />
        </mxCell>
        <mxCell id="Z0DfydjJGIAEFnmEN4nz-17" value="move():" style="text;html=1;align=center;verticalAlign=middle;resizable=0;points=[];autosize=1;strokeColor=none;fillColor=none;" vertex="1" parent="1">
          <mxGeometry x="265" y="340" width="60" height="30" as="geometry" />
        </mxCell>
        <mxCell id="Z0DfydjJGIAEFnmEN4nz-34" value="allowExit()" style="text;html=1;align=center;verticalAlign=middle;resizable=0;points=[];autosize=1;strokeColor=none;fillColor=none;" vertex="1" parent="1">
          <mxGeometry x="235" y="555" width="80" height="30" as="geometry" />
        </mxCell>
        <mxCell id="Z0DfydjJGIAEFnmEN4nz-29" value="&lt;span style=&quot;caret-color: rgb(0, 0, 0); color: rgb(0, 0, 0); font-family: Helvetica; font-size: 12px; font-style: normal; font-variant-caps: normal; font-weight: 400; letter-spacing: normal; orphans: auto; text-align: center; text-indent: 0px; text-transform: none; white-space: nowrap; widows: auto; word-spacing: 0px; -webkit-text-stroke-width: 0px; background-color: rgb(251, 251, 251); text-decoration: none; display: inline !important; float: none;&quot;&gt;[runeFound() == False)]&lt;/span&gt;" style="text;whiteSpace=wrap;html=1;" vertex="1" parent="1">
          <mxGeometry x="121" y="335" width="160" height="40" as="geometry" />
        </mxCell>
        <mxCell id="Z0DfydjJGIAEFnmEN4nz-28" value="[runeFound() == True)]" style="text;html=1;align=center;verticalAlign=middle;resizable=0;points=[];autosize=1;strokeColor=none;fillColor=none;" vertex="1" parent="1">
          <mxGeometry x="63" y="414" width="150" height="30" as="geometry" />
        </mxCell>
        <mxCell id="Z0DfydjJGIAEFnmEN4nz-16" value="displayObjects(List &amp;lt;Object&amp;gt; chosenObjects):" style="text;html=1;align=center;verticalAlign=middle;resizable=0;points=[];autosize=1;strokeColor=none;fillColor=none;" vertex="1" parent="1">
          <mxGeometry x="155" y="290" width="270" height="30" as="geometry" />
        </mxCell>
      </root>
    </mxGraphModel>
  </diagram>
</mxfile>
